<?xml version="1.0" encoding="utf-8" ?>
<svg xmlns="http://www.w3.org/2000/svg" xmlns:xlink="http://www.w3.org/1999/xlink" width="1024" height="1024">
	<g>
		<defs>
			<linearGradient id="gradient_0" gradientUnits="userSpaceOnUse" x1="499.68832" y1="960.76917" x2="382.77243" y2="389.65094">
				<stop offset="0" stop-color="#378164"/>
				<stop offset="1" stop-color="#A4C558"/>
			</linearGradient>
		</defs>
		<path fill="url(#gradient_0)" d="M138.524 376.107C138.129 372.429 137.288 366.627 139.791 363.492C140.221 362.953 140.555 363.081 141.186 363.007C145.042 365.468 146.15 370.28 147.069 374.464C151.267 393.576 162.185 411.014 178.862 421.722C182.858 424.288 187.657 426.932 192.367 427.756C209.495 428.564 226.8 427.921 243.933 427.499L317.234 425.608L541.341 420.869Q584.117 419.515 626.911 419.025C639.489 418.811 652.752 417.263 665.235 418.731C672.385 419.572 679.678 422.719 684.477 428.196C687.215 431.321 688.386 435.347 688.706 439.425C689.35 447.632 688.934 456.018 689.058 464.247L689.952 505.861L692.708 655.25L695.906 813.386Q696.475 837.158 696.789 860.935C697.002 870.288 697.665 879.772 697.357 889.112Q697.546 907.463 697.939 925.811C698.218 935.763 699.347 946.423 697.91 956.292C697.475 959.28 696.932 961.919 694.717 964.099C692.447 966.334 689.899 967.241 686.819 967.675C674.508 969.408 661.444 968.395 649 968.684Q608.906 969.671 568.839 971.44C550.643 971.838 532.463 972.831 514.273 973.426L427.995 975.987L279.658 980.939L233.998 982.476C225.557 982.757 216.67 983.683 208.276 982.805C205.265 983.696 202.573 985.552 199.881 987.131C192.778 991.298 185.231 992.354 177.086 991.394C171.902 990.783 165.479 989.127 162.261 984.721C160.237 981.95 160.617 979.795 161.178 976.601C161.745 965.896 161.036 955.008 160.544 944.307Q159.352 920.791 158.436 897.263C157.749 889.651 157.658 881.915 157.329 874.274C156.508 855.182 156.102 836.096 155.475 817.001L150.195 671.715L142.172 471.616C140.915 439.826 138.798 407.915 138.524 376.107Z"/>
		<path fill="#7FA946" d="M138.524 376.107C138.129 372.429 137.288 366.627 139.791 363.492C140.221 362.953 140.555 363.081 141.186 363.007C145.042 365.468 146.15 370.28 147.069 374.464C151.267 393.576 162.185 411.014 178.862 421.722C182.858 424.288 187.657 426.932 192.367 427.756C192.047 430.788 192.698 434.119 192.844 437.173Q193.121 443.799 193.045 450.43C192.966 487.744 194.951 525.27 196.14 562.578L205.97 870.308C206.776 895.811 208.341 921.298 208.988 946.8C209.283 958.392 210.439 971.407 208.276 982.805C205.265 983.696 202.573 985.552 199.881 987.131C192.778 991.298 185.231 992.354 177.086 991.394C171.902 990.783 165.479 989.127 162.261 984.721C160.237 981.95 160.617 979.795 161.178 976.601C161.745 965.896 161.036 955.008 160.544 944.307Q159.352 920.791 158.436 897.263C157.749 889.651 157.658 881.915 157.329 874.274C156.508 855.182 156.102 836.096 155.475 817.001L150.195 671.715L142.172 471.616C140.915 439.826 138.798 407.915 138.524 376.107Z"/>
		<defs>
			<linearGradient id="gradient_1" gradientUnits="userSpaceOnUse" x1="35.864349" y1="746.89197" x2="288.67484" y2="611.83337">
				<stop offset="0" stop-color="#0A3021"/>
				<stop offset="1" stop-color="#0F6833"/>
			</linearGradient>
		</defs>
		<path fill="url(#gradient_1)" d="M138.524 376.107C138.129 372.429 137.288 366.627 139.791 363.492C140.221 362.953 140.555 363.081 141.186 363.007C145.042 365.468 146.15 370.28 147.069 374.464C151.267 393.576 162.185 411.014 178.862 421.722C182.858 424.288 187.657 426.932 192.367 427.756C192.047 430.788 192.698 434.119 192.844 437.173Q193.121 443.799 193.045 450.43C192.966 487.744 194.951 525.27 196.14 562.578L205.97 870.308C206.776 895.811 208.341 921.298 208.988 946.8C209.283 958.392 210.439 971.407 208.276 982.805C205.265 983.696 202.573 985.552 199.881 987.131C192.778 991.298 185.231 992.354 177.086 991.394C171.902 990.783 165.479 989.127 162.261 984.721C160.237 981.95 160.617 979.795 161.178 976.601C161.745 965.896 161.036 955.008 160.544 944.307Q159.352 920.791 158.436 897.263C159.309 898.74 159.411 899.28 161.008 900.009C163.185 899.994 165.093 898.913 167.05 898.046C172.536 899.53 178.094 901.984 181.295 906.917C181.635 909.85 182.031 912.786 182.141 915.738C185.775 921.434 191.435 926.143 197.902 928.208L199.54 921.373C199.577 913.039 198.974 904.672 198.754 896.338C198.024 868.589 196.567 840.916 195.454 813.191C195.162 805.91 195.564 798.569 195.36 791.27L192.849 711.565L188.669 571.789Q187.591 502.839 184.707 433.94C165.591 423.266 153.651 412.532 144.584 392.083C142.341 387.024 141.194 381.381 138.717 376.478C138.655 376.353 138.588 376.231 138.524 376.107Z"/>
		<path fill="#3D8249" d="M158.436 897.263C159.309 898.74 159.411 899.28 161.008 900.009C163.185 899.994 165.093 898.913 167.05 898.046C172.536 899.53 178.094 901.984 181.295 906.917C181.635 909.85 182.031 912.786 182.141 915.738C185.775 921.434 191.435 926.143 197.902 928.208L199.54 921.373C200.98 928.828 202.557 971.55 199.824 977.15C198.09 980.702 191.852 982.4 188.298 983.056C178.64 984.838 170.077 980.51 161.423 976.796C161.327 976.755 161.26 976.666 161.178 976.601C161.745 965.896 161.036 955.008 160.544 944.307Q159.352 920.791 158.436 897.263Z"/>
		<path fill="#3D8249" d="M653.557 884.464C659.881 887.422 664.227 892.75 670.131 896.253C674.385 898.776 676.187 896.455 680.013 900.933L689.39 899.512C691.603 900.651 694.708 902.655 697.237 901.879C698.555 899.535 695.818 893.189 697.156 889.523C697.208 889.38 697.29 889.249 697.357 889.112Q697.546 907.463 697.939 925.811C698.218 935.763 699.347 946.423 697.91 956.292C697.475 959.28 696.932 961.919 694.717 964.099C692.447 966.334 689.899 967.241 686.819 967.675C674.508 969.408 661.444 968.395 649 968.684Q608.906 969.671 568.839 971.44C570.613 969.493 570.595 965.824 570.876 963.315C572.864 961.424 574.457 959.173 576.458 957.306C586.639 947.805 595.635 953.611 607.564 953.859C611.251 953.935 615.721 953.542 618.427 950.711C621.499 947.496 621.12 943.237 620.9 939.166C620.731 937.73 620.515 936.221 620.712 934.778C621.147 931.599 623.699 929.955 626.125 928.248L627.429 920.937C625.301 919.267 623.402 917.421 621.473 915.532C626.829 915.725 632.15 916.076 637.528 916.229C639.438 916.283 639.674 916.666 640.94 917.963L641.223 917.568C641.136 916.732 641.076 916.991 641.27 916.302C641.6 915.125 641.83 914.4 641.699 913.138C638.706 910.08 635.136 908.256 631.396 906.283L631.76 905.641C632.519 905.443 634.294 905.072 634.834 904.546C635.824 903.583 636.904 900.79 637.664 899.507C642.002 892.184 646.288 888.741 653.557 884.464Z"/>
		<path fill="#368064" d="M641.223 917.568C645.146 916.482 656.482 913.729 660.031 914.306C660.794 920.972 655.267 923.656 657.975 934.42C656.203 937.718 651.989 942.771 648.123 943.72C646.827 944.038 646.391 943.651 645.325 943.031C640.849 936.574 644.316 922.161 642.275 919.176C641.936 918.68 641.385 918.367 640.94 917.963L641.223 917.568Z"/>
		<path fill="#368064" d="M427.995 975.987C428.561 974.892 429.186 973.472 430.395 972.964C431.914 972.327 432.89 972.758 434.358 973.179C440.156 974.84 440.424 969.878 445.23 969.181C448.667 968.682 452.053 967.877 455.505 967.436C461.421 966.68 467.371 966.289 473.252 965.25C479.926 964.07 490.84 961.041 497.124 960.85C497.41 960.841 497.696 960.841 497.982 960.837L498.448 959.575C500.411 959.503 502.305 959.272 504.249 958.997C504.968 958.142 504.688 957.154 504.687 956.064L504.389 956.123L505.143 956.913L505.267 957.459C509.537 959.871 514.385 954.653 518.321 954.395L519.143 955.599L520.274 955.748L522.301 954.178C532.843 953.541 543.293 948.95 553.745 948.55C554.764 948.511 555.576 947.689 556.416 947.117C563.379 946.981 569.951 945.004 576.679 943.463C584.053 941.774 591.574 940.206 599.004 938.781C603.105 937.993 607.648 938.245 611.603 937.32C613.393 936.902 614.921 935.558 616.747 935.207C617.931 934.98 618.171 935.225 619.131 935.824C619.532 936.813 619.877 937.642 620.466 938.542C620.605 938.754 620.756 938.958 620.9 939.166C621.12 943.237 621.499 947.496 618.427 950.711C615.721 953.542 611.251 953.935 607.564 953.859C595.635 953.611 586.639 947.805 576.458 957.306C574.457 959.173 572.864 961.424 570.876 963.315C570.595 965.824 570.613 969.493 568.839 971.44C550.643 971.838 532.463 972.831 514.273 973.426L427.995 975.987Z"/>
		<path fill="#06512A" d="M335.485 543.707C341.607 543.285 347.759 543.544 353.675 545.3C360.414 547.3 366.776 551.262 370.113 557.649Q370.345 558.093 370.554 558.547Q370.764 559.002 370.951 559.467Q371.138 559.931 371.302 560.404Q371.466 560.877 371.606 561.358Q371.746 561.839 371.862 562.326Q371.979 562.812 372.071 563.305Q372.163 563.797 372.231 564.293Q372.299 564.789 372.342 565.288Q372.386 565.786 372.404 566.287Q372.423 566.787 372.417 567.288Q372.411 567.788 372.38 568.288Q372.349 568.788 372.294 569.285Q372.239 569.783 372.159 570.277Q372.079 570.772 371.975 571.261Q371.871 571.751 371.743 572.235Q371.615 572.719 371.463 573.196C369.065 580.692 362.915 585.257 356.238 588.693C362.932 590.427 369.22 593.147 374.017 598.285C378.016 602.567 380.333 608.192 379.907 614.09C379.395 621.203 374.842 626.484 369.634 630.852C369.262 631.078 368.89 631.304 368.511 631.517C354.536 639.355 333.033 640.387 317.793 636.162C316.798 623.958 317.405 611.806 317.412 599.582L316.995 546.879C323.12 545.34 329.198 544.324 335.485 543.707Z"/>
		<path fill="#7FA946" d="M339.539 595.201C346.044 594.45 352.324 594.692 358.408 597.355C363.24 599.47 367.759 603.16 369.629 608.23C370.867 611.585 370.757 615.249 369.118 618.449C366.262 624.027 360.621 626.134 355.091 628.066C345.561 630.422 335.771 630.644 326.013 630.176L325.555 596.594L339.539 595.201Z"/>
		<path fill="#7FA946" d="M332.185 551.681C336.822 551.236 341.39 551.03 345.994 551.91C351.863 553.031 358.088 555.684 361.454 560.861C363.286 563.678 364.011 567.061 363.211 570.351C361.794 576.182 356.593 579.773 351.742 582.651C343.501 586.445 334.682 587.482 325.73 588.109Q325.413 570.407 325.556 552.703C327.756 552.309 329.975 552.011 332.185 551.681Z"/>
		<path fill="#06512A" d="M433.734 549.611C439.205 549.327 444.331 549.935 449.294 552.456C456.774 556.256 461.489 563.272 463.904 571.114C468.376 585.639 467.253 604.006 459.936 617.443C455.195 626.149 448.406 630.79 439.024 633.494C431.81 633.626 425.455 633.024 419.283 628.792C411.649 623.556 407.522 614.67 405.88 605.797C403.284 591.773 404.828 574.314 413.117 562.308C418.244 554.881 425.057 551.227 433.734 549.611Z"/>
		<path fill="#7FA946" d="M432.112 557.543C435.522 557.356 438.927 557.233 442.223 558.272C447.519 559.941 451.231 563.68 453.769 568.521C459.421 579.303 458.877 594.753 455.145 606.036C452.276 614.709 447.314 620.666 439.135 624.761C435.288 625.224 431.529 625.352 427.83 624.003C422.751 622.152 419.2 618.061 417.026 613.218C411.746 601.459 412.388 584.91 417.012 573.048C419.951 565.512 424.736 560.795 432.112 557.543Z"/>
		<path fill="#06512A" d="M521.767 550.133C527.458 549.591 533.178 550.325 538.189 553.247C545.964 557.781 550.644 566.112 552.679 574.659C556.05 588.815 554.047 606.511 546.26 618.96C541.645 626.338 535.459 630.129 527.107 632.074C519.677 632.102 513.399 631.231 507.17 626.689C499.517 621.11 495.546 612.111 494.238 602.961C492.267 589.183 494.371 572.24 502.993 560.869C507.761 554.581 514.02 551.199 521.767 550.133Z"/>
		<path fill="#7FA946" d="M522.046 557.52C525.348 557.447 528.245 557.369 531.388 558.601C536.618 560.651 540.032 564.826 542.187 569.893C546.893 580.959 546.369 596.539 541.874 607.578C538.678 615.427 534.118 620.134 526.292 623.375C522.346 623.63 518.595 623.403 514.986 621.635C509.773 619.081 506.582 614.18 504.807 608.803C500.914 597.009 501.553 580.84 507.322 569.735C510.664 563.302 515.264 559.705 522.046 557.52Z"/>
		<path fill="#06512A" d="M583.505 772.825C590.452 772.801 592.417 780.857 597.688 784.257C608.297 791.1 614.933 785.376 625.207 783.552C626.86 783.258 628.092 783.173 629.524 784.158C629.929 785.075 630.317 785.856 630.269 786.893C630.212 788.085 629.603 789.144 628.792 789.984C623.501 795.461 611.977 795.705 604.951 795.633C597.187 825.977 575.981 852.267 549.322 868.282C520.403 885.654 483.199 889.2 450.749 881.045C419.479 873.188 389.939 856.094 369.669 830.768C364.35 824.123 360.01 816.881 355.645 809.598C350.221 810.892 344.112 812.274 338.519 811.541C335.379 811.13 333.312 810.197 331.408 807.654C331.493 807.356 331.573 807.056 331.663 806.76C333.252 801.515 343.356 803.156 347.799 802.646C350.547 802.33 353.64 801.5 356.107 800.26C365.895 795.341 369.183 780.693 375.443 777.452C376.555 777.712 377.514 778.075 378.321 778.935C379.254 779.929 379.426 781.402 379.337 782.703C378.761 791.025 368.853 800.289 362.778 805.376C377.94 834.873 405.48 857.576 436.594 868.48C469.117 879.878 505.94 880.576 537.398 865.343C569.38 849.856 585.201 826.211 596.597 793.638C591.466 790.656 583.362 785.152 581.935 779.047C581.321 776.416 582.113 774.981 583.505 772.825Z"/>
		<path fill="#06512A" d="M571.323 679.214C571.484 679.199 571.645 679.177 571.807 679.17C584.726 678.626 598.92 681.7 608.937 690.297C615.064 695.555 617.299 701.557 617.877 709.382Q616.77 710.996 615.512 712.496C613.112 715.316 609.937 716.898 606.242 717.081C593.565 717.706 594.482 703.237 586.975 696.866C581.806 692.479 575.048 692.737 568.721 693.371C549.416 698.118 546.4 717.423 534.903 719.923C532.567 720.43 530.424 719.977 528.492 718.572C526.238 716.932 524.153 714.321 523.883 711.471C523.418 706.557 527.412 699.634 530.518 696.094C540.534 684.681 556.726 680.262 571.323 679.214Z"/>
		<path fill="#06512A" d="M588.637 546.302C589.662 546.449 590.459 546.751 591.213 547.507C595.774 552.084 593.731 572.961 593.439 579.972C603.36 572.44 623.833 552.733 633.693 548.655C635.114 548.068 636.438 547.655 637.93 548.252C638.552 549.049 638.583 549.468 638.554 550.51C638.478 553.209 635.961 556.503 634.224 558.384C629.888 563.079 624.264 566.605 619.313 570.619Q608.612 579.348 598.505 588.758C605.886 599.416 616.692 607.816 626.507 616.144C630.028 618.88 634.363 621.912 636.725 625.743C637.732 627.377 638.98 629.943 638.21 631.879C637.691 633.182 637.145 633.349 635.963 633.865C625.469 633.302 601.699 605.969 594.035 597.856C593.977 604.136 595.534 630.495 591.645 634.044C590.636 634.965 589.68 635.126 588.34 634.999C587.144 634.886 585.826 634.224 585.155 633.217C582.516 629.253 584.163 560.357 585.197 550.479C586.173 548.892 587.355 547.647 588.637 546.302Z"/>
		<path fill="#06512A" d="M390.773 687.192C392.346 686.922 394.132 686.908 395.73 686.855C409.036 686.411 423.925 689.473 433.904 698.899C437.344 702.149 440.21 706.471 440.232 711.36C440.249 715.268 438.52 718.961 435.734 721.661C433.64 723.691 431.485 724.268 428.613 724.156C419.075 723.781 417.874 710.082 412.217 704.415C407.248 699.437 400.746 698.932 394.121 698.93C391.173 699.355 388.507 699.729 385.858 701.177C385.573 701.333 385.295 701.501 385.011 701.659C382.496 703.069 380.357 704.506 378.41 706.675C372.836 712.884 369.22 726.492 360.077 728.455C357.747 728.955 355.536 728.255 353.602 726.94C350.946 725.135 349.465 722.428 349.02 719.277C348.236 713.737 350.828 708.052 354.212 703.808C363.133 692.62 377.158 688.726 390.773 687.192Z"/>
		<defs>
			<linearGradient id="gradient_2" gradientUnits="userSpaceOnUse" x1="884.79468" y1="467.10043" x2="729.12708" y2="129.30637">
				<stop offset="0" stop-color="#0C4631"/>
				<stop offset="1" stop-color="#44803D"/>
			</linearGradient>
		</defs>
		<path fill="url(#gradient_2)" d="M863.663 72.2838C865.262 70.6599 864.189 68.568 865.583 66.9057C866.439 66.7252 867.19 66.5104 868.069 66.6798C869.034 66.8658 870.008 67.1208 870.972 67.3291C878.175 70.9647 884.961 76.2609 891.374 81.1266Q894.693 83.6466 897.915 86.2892Q901.137 88.9317 904.259 91.6931Q907.38 94.4545 910.395 97.3309Q913.41 100.207 916.316 103.195Q919.221 106.182 922.013 109.276Q924.804 112.37 927.478 115.566Q930.152 118.763 932.704 122.057Q935.256 125.351 937.683 128.739Q940.11 132.127 942.409 135.603Q944.707 139.079 946.873 142.639Q949.04 146.199 951.072 149.837Q953.103 153.475 954.997 157.187Q956.891 160.899 958.645 164.68Q960.398 168.46 962.009 172.303Q963.62 176.147 965.086 180.048Q966.551 183.949 967.87 187.902C986.13 243.616 980.687 302.29 954.17 354.442C927.252 407.382 878.051 452.124 821.157 470.574C813.985 472.9 805.926 473.978 799.188 477.41C790.485 481.843 780.909 491.892 773.181 498.37L723.814 539.611C720.63 542.316 714.14 549.246 709.741 547.069C708.638 546.523 708.196 545.963 707.992 544.742C707.207 540.045 715.012 523.005 716.896 517.068Q719.263 509.786 720.64 502.254C721.359 498.231 721.988 494.054 722.194 489.968C722.429 485.306 720.647 467.06 723.107 464.032C723.534 463.506 724.344 463.432 724.966 463.24C726.392 463.534 727.156 463.821 728.099 464.987C734.163 472.483 730.202 497.862 728.385 506.417C726.632 514.671 723.719 522.535 720.927 530.479C728.637 525.387 735.86 518.419 742.944 512.453C753.678 503.412 764.613 494.582 775.265 485.449C780.784 480.717 785.937 474.965 792.106 471.101C799.763 466.305 809.429 465.172 817.932 462.467C826.019 459.895 833.904 456.407 841.522 452.685Q844.494 451.262 847.424 449.754Q850.354 448.246 853.239 446.654Q856.124 445.061 858.962 443.386Q861.8 441.712 864.589 439.956Q867.377 438.199 870.114 436.364Q872.85 434.528 875.533 432.614Q878.215 430.699 880.841 428.709Q883.467 426.718 886.034 424.652Q888.602 422.586 891.108 420.447Q893.615 418.308 896.059 416.097Q898.503 413.887 900.881 411.606Q903.26 409.326 905.573 406.978Q907.885 404.63 910.128 402.216Q912.371 399.803 914.544 397.325Q916.717 394.847 918.817 392.308Q920.917 389.769 922.943 387.17Q924.969 384.571 926.92 381.915Q928.87 379.258 930.742 376.547Q932.615 373.835 934.409 371.071Q936.202 368.306 937.915 365.491Q939.628 362.676 941.259 359.813Q942.89 356.949 944.438 354.04Q945.985 351.131 947.448 348.178Q948.911 345.225 950.288 342.231Q951.665 339.238 952.955 336.205Q954.245 333.173 955.447 330.105Q956.649 327.036 957.761 323.935Q958.874 320.833 959.897 317.7Q960.92 314.568 961.852 311.407Q962.783 308.246 963.624 305.06Q964.464 301.873 965.211 298.664Q965.959 295.455 966.614 292.225C975.325 249.846 968.763 204.309 949.858 165.514C944.97 155.484 939.077 146.095 932.946 136.784C915.594 110.43 890.636 88.3802 863.663 72.2838Z"/>
		<defs>
			<linearGradient id="gradient_3" gradientUnits="userSpaceOnUse" x1="712.41248" y1="258.99167" x2="609.91125" y2="51.390816">
				<stop offset="0" stop-color="#336E39"/>
				<stop offset="1" stop-color="#559444"/>
			</linearGradient>
		</defs>
		<path fill="url(#gradient_3)" d="M863.663 72.2838C824.437 49.6206 779.18 38.1627 734.032 36.8651C663.998 34.8523 590.455 57.5996 538.976 106.314C488.379 154.194 464.735 227.124 489.362 294.05C491.693 300.384 494.09 306.818 497.22 312.806C500.982 320.005 505.803 327.316 511.047 333.527C514.72 337.877 519.144 342.055 522.158 346.876C523.43 348.912 524.138 350.735 524.068 353.138C523.702 353.796 523.675 354.324 522.874 354.494C521.236 354.841 519.438 353.941 518.08 353.09C512.739 349.742 508.389 343.511 504.736 338.474C490.51 318.86 480.26 297.512 475.265 273.756C465.3 226.365 475.854 177.873 502.238 137.508C530.73 93.9213 574.201 64.2649 622.673 46.7582C634.177 42.603 645.872 38.7952 657.864 36.3047C713.362 24.7791 769.435 26.4731 823.262 44.9263C839.858 50.6159 856.267 57.6667 870.972 67.3291C870.008 67.1208 869.034 66.8658 868.069 66.6798C867.19 66.5104 866.439 66.7252 865.583 66.9057C864.189 68.568 865.262 70.6599 863.663 72.2838Z"/>
		<path fill="#3D8249" d="M650.175 397.704C651.937 397.627 654.649 397.404 655.983 398.801C656.804 399.661 656.909 400.154 656.894 401.247C655.011 403.22 651.741 403.391 649.155 403.602C638.892 404.44 628.352 404.009 618.045 404.244L537.854 405.521L310.436 410.319L250.051 411.413C232.269 411.587 214.387 411.414 196.635 412.511C194.736 412.51 192.419 412.677 190.697 411.717C189.336 410.958 188.962 410.481 188.567 409.007C188.685 408.847 188.775 408.661 188.923 408.528C191.062 406.613 196.421 406.288 199.249 406.12C213.687 405.265 228.462 405.785 242.943 405.611L317 404.317L517.853 400.451C561.898 399.658 606.18 399.784 650.175 397.704Z"/>
		<path fill="#3D8249" d="M605.641 378.707C611.859 378.437 621.865 376.891 627.481 379.698C628.636 380.275 629.146 380.7 629.561 381.908L628.872 382.808C626.728 383.831 624.769 384.292 622.397 384.424C612.513 384.978 602.32 384.461 592.398 384.518L526.469 385.04L295.676 386.755C263.076 386.993 230.417 386.519 197.83 387.446C190.952 387.584 182.909 388.496 176.146 387.167C174.574 386.859 173.54 386.49 172.614 385.17C172.866 384.236 172.719 384.256 173.414 383.602C175.185 381.933 178.047 381.663 180.349 381.505C191.851 380.716 203.905 381.508 215.457 381.504L278.961 381.093L487.58 379.623L560.832 379.161C575.721 379.095 590.776 379.508 605.641 378.707Z"/>
		<path fill="#3D8249" d="M652.711 77.6666C654.291 77.5265 655.322 77.7864 656.694 78.5635C657.484 79.5794 657.616 80.1542 657.751 81.4258C657.123 82.9886 656.699 83.6011 655.151 84.3258C650.645 86.4344 645.051 87.4017 640.253 88.7965Q628.329 92.1506 616.952 97.0483C578.591 113.642 537.39 147.043 519.623 185.591C516.851 191.604 515.308 197.931 513.841 204.356C513.179 207.254 512.737 210.568 511.594 213.309C511.468 213.611 511.334 213.91 511.204 214.21C509.944 214.359 508.354 214.632 507.159 214.065C506.046 213.536 505.474 212.59 505.305 211.408C503.215 196.737 517.623 170.65 526.233 158.487C554.32 118.814 604.578 85.8315 652.711 77.6666Z"/>
	</g>
	<g/>
</svg>
